<?xml version="1.0" encoding="UTF-8"?>
<svg version="1.1" xmlns="http://www.w3.org/2000/svg" width="145" height="76">
<path d="M0 0 C47.85 0 95.7 0 145 0 C145 25.08 145 50.16 145 76 C97.15 76 49.3 76 0 76 C0 50.92 0 25.84 0 0 Z " fill="#FCFDFC" transform="translate(0,0)"/>
<path d="M0 0 C3.63017702 2.20967297 4.78862074 3.5155892 6.5 7.4375 C7 11 7 11 5.75 13.9375 C4.88375 14.9584375 4.88375 14.9584375 4 16 C3.34 16 2.68 16 2 16 C2 15.34 2 14.68 2 14 C0.68 13.34 -0.64 12.68 -2 12 C-1.67 10.68 -1.34 9.36 -1 8 C-1.99 8 -2.98 8 -4 8 C-6.23626145 9.77552621 -6.23626145 9.77552621 -6.046875 12.09375 C-5.89992188 13.28484375 -5.89992188 13.28484375 -5.75 14.5 C-5.66234375 15.2940625 -5.5746875 16.088125 -5.484375 16.90625 C-5.14701767 19.20600682 -5.14701767 19.20600682 -3 21 C-0.67724823 21.40047444 1.65739357 21.7397104 4 22 C4.06058594 23.05960938 4.12117188 24.11921875 4.18359375 25.2109375 C4.26800127 26.59897221 4.35264917 27.98699232 4.4375 29.375 C4.47681641 30.07367188 4.51613281 30.77234375 4.55664062 31.4921875 C4.74280134 35.37360492 4.74280134 35.37360492 6 39 C5.01 39.99 4.02 40.98 3 42 C3.99 41.67 4.98 41.34 6 41 C6.33 41.99 6.66 42.98 7 44 C5.35 43.67 3.7 43.34 2 43 C1.7215625 44.2375 1.7215625 44.2375 1.4375 45.5 C-0.88402897 51.15241835 -4.8213372 55.20260319 -9.5 59.0625 C-13.32447912 60.49667967 -15.08422138 60.30525954 -19 59 C-24.20832195 54.84202298 -28.5905453 50.26458222 -31 44 C-32.32 44 -33.64 44 -35 44 C-35 43.01 -35 42.02 -35 41 C-34.01 40.505 -34.01 40.505 -33 40 C-33.495 38.515 -33.495 38.515 -34 37 C-33.34 37 -32.68 37 -32 37 C-32 32.05 -32 27.1 -32 22 C-25.565 21.505 -25.565 21.505 -19 21 C-19.33 20.01 -19.66 19.02 -20 18 C-20.66 18 -21.32 18 -22 18 C-23.125 11.25 -23.125 11.25 -22 9 C-24.475 8.01 -24.475 8.01 -27 7 C-28.32 9.64 -29.64 12.28 -31 15 C-31.99 14.67 -32.98 14.34 -34 14 C-34.81238966 11.1566362 -35.08159501 9.33453956 -34.375 6.4375 C-31.89299308 2.03757864 -27.87657258 -0.60440654 -23.21484375 -2.4609375 C-15.28157911 -4.39178498 -7.24534927 -3.62267464 0 0 Z " fill="#BBBFC4" transform="translate(43,6)"/>
<path d="M0 0 C0.99 0 1.98 0 3 0 C3 1.65 3 3.3 3 5 C4.65 5 6.3 5 8 5 C8 3.35 8 1.7 8 0 C9.32 0.33 10.64 0.66 12 1 C11.67 3.97 11.34 6.94 11 10 C13.92824652 7.07175348 15.27239967 4.7020007 17 1 C17.66 1 18.32 1 19 1 C19.26554687 1.56589844 19.53109375 2.13179687 19.8046875 2.71484375 C20.15789062 3.44832031 20.51109375 4.18179688 20.875 4.9375 C21.22304687 5.66839844 21.57109375 6.39929687 21.9296875 7.15234375 C22.8684977 9.16332459 22.8684977 9.16332459 25 10 C25 6.7 25 3.4 25 0 C26.98 0 28.96 0 31 0 C32.42944945 2.35438733 33.08661261 3.48032433 32.625 6.25 C32.41875 6.8275 32.2125 7.405 32 8 C34.475 8.99 34.475 8.99 37 10 C36.67 6.7 36.34 3.4 36 0 C37.98 0 39.96 0 42 0 C43.0625 1.75 43.0625 1.75 44 4 C43.7215625 5.0209375 43.7215625 5.0209375 43.4375 6.0625 C43.293125 6.701875 43.14875 7.34125 43 8 C44.35444301 9.77190909 44.35444301 9.77190909 46 11 C44.35 11.33 42.7 11.66 41 12 C41 12.66 41 13.32 41 14 C43.31 14 45.62 14 48 14 C48 15.98 48 17.96 48 20 C47.34 20 46.68 20 46 20 C46 18.68 46 17.36 46 16 C45.34 16 44.68 16 44 16 C43.505 18.475 43.505 18.475 43 21 C41.35 20.67 39.7 20.34 38 20 C38 19.34 38 18.68 38 18 C37.34 18 36.68 18 36 18 C36 18.66 36 19.32 36 20 C32.39006368 21.54711556 30.60696062 22.16341247 26.75 21.125 C25.8425 20.75375 24.935 20.3825 24 20 C23.34 20 22.68 20 22 20 C22 17.33333333 22 14.66666667 22 12 C21.34 11.67 20.68 11.34 20 11 C20 9.68 20 8.36 20 7 C16.9890638 9.0072908 16.36983503 9.83884224 15 13 C17.97 13.495 17.97 13.495 21 14 C21 15.98 21 17.96 21 20 C16.21895403 21.98238491 13.05320335 21.97176988 8 21 C7.34 21 6.68 21 6 21 C4 21 2 21 0 21 C0 21.66 0 22.32 0 23 C25.08 23 50.16 23 76 23 C76 23.66 76 24.32 76 25 C60.655 25.495 60.655 25.495 45 26 C43.54685336 30.60532389 43.54685336 30.60532389 45 33 C43.35 33 41.7 33 40 33 C40 31.02 40 29.04 40 27 C39.34 27 38.68 27 38 27 C38 28.98 38 30.96 38 33 C34.04 33 30.08 33 26 33 C26 32.34 26 31.68 26 31 C25.34 31 24.68 31 24 31 C24 31.66 24 32.32 24 33 C22.37509046 33.02698189 20.75005367 33.04638757 19.125 33.0625 C18.22007813 33.07410156 17.31515625 33.08570313 16.3828125 33.09765625 C14 33 14 33 12 32 C10.68 32.99 9.36 33.98 8 35 C7.67 34.67 7.34 34.34 7 34 C4.67182036 33.63239269 2.3381615 33.29758419 0 33 C-2.48063781 20.51480638 -2.48063781 20.51480638 -1 14 C-0.34 14 0.32 14 1 14 C0.83628906 13.44828125 0.67257813 12.8965625 0.50390625 12.328125 C-0.05760414 9.73385993 -0.09739008 7.40164589 -0.0625 4.75 C-0.05347656 3.85796875 -0.04445312 2.9659375 -0.03515625 2.046875 C-0.02355469 1.37140625 -0.01195312 0.6959375 0 0 Z " fill="#ECEFF1" transform="translate(64,28)"/>
<path d="M0 0 C0.06058594 1.05960938 0.12117188 2.11921875 0.18359375 3.2109375 C0.26800127 4.59897221 0.35264917 5.98699232 0.4375 7.375 C0.47681641 8.07367188 0.51613281 8.77234375 0.55664062 9.4921875 C0.74280134 13.37360492 0.74280134 13.37360492 2 17 C1.01 17.99 0.02 18.98 -1 20 C-0.01 19.67 0.98 19.34 2 19 C2.495 20.485 2.495 20.485 3 22 C1.35 21.67 -0.3 21.34 -2 21 C-2.2784375 22.2375 -2.2784375 22.2375 -2.5625 23.5 C-4.88402897 29.15241835 -8.8213372 33.20260319 -13.5 37.0625 C-17.32447912 38.49667967 -19.08422138 38.30525954 -23 37 C-28.20832195 32.84202298 -32.5905453 28.26458222 -35 22 C-36.32 22 -37.64 22 -39 22 C-39 21.01 -39 20.02 -39 19 C-38.34 18.67 -37.68 18.34 -37 18 C-37.33 17.01 -37.66 16.02 -38 15 C-37.34 15 -36.68 15 -36 15 C-36 10.38 -36 5.76 -36 1 C-31.71 1 -27.42 1 -23 1 C-23 5.29 -23 9.58 -23 14 C-26.3 14 -29.6 14 -33 14 C-33 14.99 -33 15.98 -33 17 C-32.09636719 16.89300781 -31.19273438 16.78601563 -30.26171875 16.67578125 C-29.08222656 16.55589844 -27.90273438 16.43601562 -26.6875 16.3125 C-25.51574219 16.18488281 -24.34398437 16.05726562 -23.13671875 15.92578125 C-20 16 -20 16 -18.08203125 17.48046875 C-17.54642578 18.23263672 -17.54642578 18.23263672 -17 19 C-17.33 19.66 -17.66 20.32 -18 21 C-19.98 21 -21.96 21 -24 21 C-24 22.32 -24 23.64 -24 25 C-24.99 25 -25.98 25 -27 25 C-27 24.34 -27 23.68 -27 23 C-27.66 23.33 -28.32 23.66 -29 24 C-29 24.66 -29 25.32 -29 26 C-27.02 26.33 -25.04 26.66 -23 27 C-22.34 26.01 -21.68 25.02 -21 24 C-20.01 24.33 -19.02 24.66 -18 25 C-18 26.98 -18 28.96 -18 31 C-17.34 31 -16.68 31 -16 31 C-16.33 31.99 -16.66 32.98 -17 34 C-17.99 34 -18.98 34 -20 34 C-19.67 34.66 -19.34 35.32 -19 36 C-16.525 35.505 -16.525 35.505 -14 35 C-14 32.36 -14 29.72 -14 27 C-12.68 27 -11.36 27 -10 27 C-8.65835921 26.7018576 -7.32148827 26.37756808 -6 26 C-5.68436818 20.73946963 -6.33409063 17.55426184 -9 13 C-9 14.98 -9 16.96 -9 19 C-8.34 19 -7.68 19 -7 19 C-7 21.31 -7 23.62 -7 26 C-8.8515625 25.76171875 -8.8515625 25.76171875 -11 25 C-12.98319695 22.2455598 -14.1263879 19.27058529 -15 16 C-14.375 12.875 -14.375 12.875 -13 10 C-12.60298616 8.71492888 -12.22801456 7.42284764 -11.875 6.125 C-11.58625 5.09375 -11.2975 4.0625 -11 3 C-13.31 3.33 -15.62 3.66 -18 4 C-18.33 4.99 -18.66 5.98 -19 7 C-18.01 7.33 -17.02 7.66 -16 8 C-17.65 8.66 -19.3 9.32 -21 10 C-21 7.03 -21 4.06 -21 1 C-13.97252688 0.33411422 -7.05985273 -0.11766421 0 0 Z " fill="#0F1B40" transform="translate(47,28)"/>
<path d="M0 0 C0.99 0.66 1.98 1.32 3 2 C2.67 2.66 2.34 3.32 2 4 C1.34 3.67 0.68 3.34 0 3 C0 3.99 0 4.98 0 6 C1.32 5.67 2.64 5.34 4 5 C4.51046875 5.85271484 4.51046875 5.85271484 5.03125 6.72265625 C8.53839502 12.30983675 12.2329271 17.57335086 18 21 C22.42436334 21.30512851 24.34351798 20.41532536 28.0625 18.0625 C32.02152686 14.45562378 34.45440078 9.64887801 37 5 C39.475 5.495 39.475 5.495 42 6 C41.34 5.34 40.68 4.68 40 4 C39.34 4 38.68 4 38 4 C38.33 3.01 38.66 2.02 39 1 C42.35595828 1.59927826 44.37801226 2.84622436 47 5 C46.56354727 10.45565919 45.42585612 13.71767985 42 18 C41.113125 18.70125 40.22625 19.4025 39.3125 20.125 C36.84215804 21.74054515 36.84215804 21.74054515 36.5 24.0625 C36 26 36 26 33.6875 27.6875 C27.21995261 30.84606966 19.51645696 31.04115462 12.54296875 29.43359375 C9.0216698 28.18578652 6.41515866 26.83518625 4 24 C3.67 23.01 3.34 22.02 3 21 C2.21625 20.38125 1.4325 19.7625 0.625 19.125 C-3.01403763 16.1791124 -4.48602266 13.42099616 -6.0625 9.0625 C-5.989585 5.48966506 -5.4902916 5.05851753 -3.0625 2.625 C-2.05734293 1.73203586 -1.04100187 0.85090587 0 0 Z " fill="#ECF0F2" transform="translate(8,44)"/>
<path d="M0 0 C1.5159375 0.061875 1.5159375 0.061875 3.0625 0.125 C4.0525 0.125 5.0425 0.125 6.0625 0.125 C9.72916667 0.125 13.39583333 0.125 17.0625 0.125 C17.0625 2.435 17.0625 4.745 17.0625 7.125 C17.7225 7.125 18.3825 7.125 19.0625 7.125 C19.3925 4.815 19.7225 2.505 20.0625 0.125 C21.0525 0.455 22.0425 0.785 23.0625 1.125 C21.4125 5.085 19.7625 9.045 18.0625 13.125 C18.7225 13.455 19.3825 13.785 20.0625 14.125 C20.0625 15.775 20.0625 17.425 20.0625 19.125 C20.7225 19.125 21.3825 19.125 22.0625 19.125 C22.0625 19.785 22.0625 20.445 22.0625 21.125 C19.7525 20.795 17.4425 20.465 15.0625 20.125 C15.0625 19.465 15.0625 18.805 15.0625 18.125 C14.4025 18.125 13.7425 18.125 13.0625 18.125 C13.0625 18.785 13.0625 19.445 13.0625 20.125 C12.32 20.104375 11.5775 20.08375 10.8125 20.0625 C8.15959799 19.99196348 8.15959799 19.99196348 6.125 20.75 C3.09221853 21.30141481 0.88365258 20.21499077 -1.9375 19.125 C-1.7725 18.34125 -1.6075 17.5575 -1.4375 16.75 C-0.8751293 14.24291961 -0.8751293 14.24291961 -0.9375 12.125 C-2.56376404 10.74267557 -4.2300002 9.40562485 -5.9375 8.125 C-4.90494186 0.20872093 -4.90494186 0.20872093 0 0 Z " fill="#E6E8E9" transform="translate(115.9375,27.875)"/>
<path d="M0 0 C1.32 1.65 2.64 3.3 4 5 C2 7 2 7 -0.8203125 7.1953125 C-1.91085938 7.17210937 -3.00140625 7.14890625 -4.125 7.125 C-5.22070312 7.10695313 -6.31640625 7.08890625 -7.4453125 7.0703125 C-8.28835937 7.04710937 -9.13140625 7.02390625 -10 7 C-9.67 9.64 -9.34 12.28 -9 15 C-8.67 14.34 -8.34 13.68 -8 13 C-8.33 12.01 -8.66 11.02 -9 10 C-5.94152152 9.45627049 -3.11227195 9 0 9 C0.21371507 13.48801639 -0.47002149 16.7925591 -2 21 C-2 23.30242298 -1.45486082 24.89421378 -0.6875 27.0625 C-0.44386719 27.77535156 -0.20023438 28.48820312 0.05078125 29.22265625 C0.92969755 31.35870289 0.92969755 31.35870289 4 32 C4 29.69 4 27.38 4 25 C3.34 25 2.68 25 2 25 C1.505 20.05 1.505 20.05 1 15 C4.75173625 20.62760438 6.41628689 25.20064747 6 32 C1.375 34.125 1.375 34.125 -2 33 C-1.87625 34.36125 -1.87625 34.36125 -1.75 35.75 C-2 39 -2 39 -4 41.375 C-4.66 41.91125 -5.32 42.4475 -6 43 C-7.485 42.505 -7.485 42.505 -9 42 C-9 41.34 -9 40.68 -9 40 C-7.515 39.505 -7.515 39.505 -6 39 C-5.67 38.34 -5.34 37.68 -5 37 C-5.66 37 -6.32 37 -7 37 C-7.33 35.02 -7.66 33.04 -8 31 C-8.66 31 -9.32 31 -10 31 C-10.99 32.485 -10.99 32.485 -12 34 C-13.98 33.67 -15.96 33.34 -18 33 C-18 31.68 -18 30.36 -18 29 C-17.34 29 -16.68 29 -16 29 C-16 29.66 -16 30.32 -16 31 C-15.01 31 -14.02 31 -13 31 C-13 29.68 -13 28.36 -13 27 C-11.02 26.67 -9.04 26.34 -7 26 C-8.11289898 24.38275389 -8.11289898 24.38275389 -10 23 C-12.97192762 22.63680691 -12.97192762 22.63680691 -16.1875 22.8125 C-17.81751953 22.85310547 -17.81751953 22.85310547 -19.48046875 22.89453125 C-20.31191406 22.92933594 -21.14335937 22.96414062 -22 23 C-22 22.01 -22 21.02 -22 20 C-19.03 19.67 -16.06 19.34 -13 19 C-13 15.37 -13 11.74 -13 8 C-16.96 7.67 -20.92 7.34 -25 7 C-25 6.67 -25 6.34 -25 6 C-20.94160515 5.42022931 -17.03884537 4.93579107 -12.9375 5 C-9.11932926 5 -5.71597772 4.89183465 -2 4 C-0.48705712 2.06402968 -0.48705712 2.06402968 0 0 Z " fill="#B6BDC5" transform="translate(36,22)"/>
<path d="M0 0 C0.495 0.99 0.495 0.99 1 2 C-14.345 2.495 -14.345 2.495 -30 3 C-31.45314664 7.60532389 -31.45314664 7.60532389 -30 10 C-31.65 10 -33.3 10 -35 10 C-35 8.02 -35 6.04 -35 4 C-35.66 4 -36.32 4 -37 4 C-37 5.98 -37 7.96 -37 10 C-40.96 10 -44.92 10 -49 10 C-49 9.34 -49 8.68 -49 8 C-49.66 8 -50.32 8 -51 8 C-51 8.66 -51 9.32 -51 10 C-52.62490954 10.02698189 -54.24994633 10.04638757 -55.875 10.0625 C-57.23238281 10.07990234 -57.23238281 10.07990234 -58.6171875 10.09765625 C-61 10 -61 10 -63 9 C-64.32 9.99 -65.64 10.98 -67 12 C-67.33 11.67 -67.66 11.34 -68 11 C-70.32817964 10.63239269 -72.6618385 10.29758419 -75 10 C-75.33 7.03 -75.66 4.06 -76 1 C-50.92 0.67 -25.84 0.34 0 0 Z " fill="#E3E4E5" transform="translate(139,51)"/>
<path d="M0 0 C0.99 0 1.98 0 3 0 C3 1.65 3 3.3 3 5 C4.65 5 6.3 5 8 5 C8 3.35 8 1.7 8 0 C9.32 0.33 10.64 0.66 12 1 C11.67 3.97 11.34 6.94 11 10 C12.32 10.33 13.64 10.66 15 11 C15 10.01 15 9.02 15 8 C15.66 8.33 16.32 8.66 17 9 C16.34 10.32 15.68 11.64 15 13 C17.97 13.495 17.97 13.495 21 14 C21 15.98 21 17.96 21 20 C16.21895403 21.98238491 13.05320335 21.97176988 8 21 C7.34 21 6.68 21 6 21 C4 21 2 21 0 21 C0 21.66 0 22.32 0 23 C24.75 23 49.5 23 75 23 C75 23.33 75 23.66 75 24 C49.92 24 24.84 24 -1 24 C-2.231394 20.30581799 -1.64432764 17.7943739 -1 14 C-0.34 14 0.32 14 1 14 C0.83628906 13.44828125 0.67257813 12.8965625 0.50390625 12.328125 C-0.05760414 9.73385993 -0.09739008 7.40164589 -0.0625 4.75 C-0.05347656 3.85796875 -0.04445312 2.9659375 -0.03515625 2.046875 C-0.02355469 1.37140625 -0.01195312 0.6959375 0 0 Z " fill="#F3F5F4" transform="translate(64,28)"/>
<path d="M0 0 C0.06058594 1.05960938 0.12117188 2.11921875 0.18359375 3.2109375 C0.26800127 4.59897221 0.35264917 5.98699232 0.4375 7.375 C0.47681641 8.07367188 0.51613281 8.77234375 0.55664062 9.4921875 C0.74280134 13.37360492 0.74280134 13.37360492 2 17 C1.01 17.99 0.02 18.98 -1 20 C-0.01 19.67 0.98 19.34 2 19 C2.33 19.99 2.66 20.98 3 22 C1.35 21.67 -0.3 21.34 -2 21 C-2.33 21.66 -2.66 22.32 -3 23 C-3 22.01 -3 21.02 -3 20 C-3.99 19.67 -4.98 19.34 -6 19 C-7.6875 15.9375 -7.6875 15.9375 -9 13 C-9 14.98 -9 16.96 -9 19 C-8.34 19 -7.68 19 -7 19 C-7 21.31 -7 23.62 -7 26 C-8.8515625 25.76171875 -8.8515625 25.76171875 -11 25 C-12.98319695 22.2455598 -14.1263879 19.27058529 -15 16 C-14.375 12.875 -14.375 12.875 -13 10 C-12.60298616 8.71492888 -12.22801456 7.42284764 -11.875 6.125 C-11.58625 5.09375 -11.2975 4.0625 -11 3 C-13.31 3.33 -15.62 3.66 -18 4 C-18.33 4.99 -18.66 5.98 -19 7 C-18.01 7.33 -17.02 7.66 -16 8 C-17.65 8.66 -19.3 9.32 -21 10 C-21 7.03 -21 4.06 -21 1 C-13.97252688 0.33411422 -7.05985273 -0.11766421 0 0 Z " fill="#151D3A" transform="translate(47,28)"/>
<path d="M0 0 C3.35595828 0.59927826 5.37801226 1.84622436 8 4 C7.56354727 9.45565919 6.42585612 12.71767985 3 17 C2.113125 17.70125 1.22625 18.4025 0.3125 19.125 C-2.18081321 20.74173861 -2.18081321 20.74173861 -2.4375 23.125 C-2.623125 23.74375 -2.80875 24.3625 -3 25 C-6.0625 26.25 -6.0625 26.25 -9 27 C-9.33 26.67 -9.66 26.34 -10 26 C-13 25.83333333 -13 25.83333333 -16 26 C-16.33 26.33 -16.66 26.66 -17 27 C-18.52519276 26.91062197 -20.04681929 26.75462854 -21.5625 26.5625 C-22.38878906 26.46066406 -23.21507812 26.35882813 -24.06640625 26.25390625 C-24.70449219 26.17011719 -25.34257812 26.08632812 -26 26 C-26 25.34 -26 24.68 -26 24 C-23.56318413 23.49645133 -21.12564561 22.99703244 -18.6875 22.5 C-17.99720703 22.35691406 -17.30691406 22.21382812 -16.59570312 22.06640625 C-13.67475227 21.47374956 -10.98891878 21 -8 21 C-8.20625 20.4225 -8.4125 19.845 -8.625 19.25 C-9.10248638 16.38508174 -8.38692753 15.51836841 -7 13 C-6.57460938 12.22140625 -6.14921875 11.4428125 -5.7109375 10.640625 C-5.27007812 9.85171875 -4.82921875 9.0628125 -4.375 8.25 C-3.92898437 7.45078125 -3.48296875 6.6515625 -3.0234375 5.828125 C-2.68570313 5.22484375 -2.34796875 4.6215625 -2 4 C0.475 4.495 0.475 4.495 3 5 C2.34 4.34 1.68 3.68 1 3 C0.34 3 -0.32 3 -1 3 C-0.67 2.01 -0.34 1.02 0 0 Z " fill="#B6BCC3" transform="translate(47,45)"/>
<path d="M0 0 C0.66 0 1.32 0 2 0 C2.44214844 0.49242187 2.88429688 0.98484375 3.33984375 1.4921875 C4.90101131 3.20357712 4.90101131 3.20357712 7.19140625 3.2578125 C7.97386719 3.21398437 8.75632812 3.17015625 9.5625 3.125 C13.82959641 2.91479821 13.82959641 2.91479821 16 4 C16 3.34 16 2.68 16 2 C17.32 1.67 18.64 1.34 20 1 C20.33 1.99 20.66 2.98 21 4 C20.505 4.37125 20.01 4.7425 19.5 5.125 C17.70066696 6.97397104 17.70066696 6.97397104 18 9.875 C18 13 18 13 17.125 15.875 C14.47245693 18.52754307 13.47108503 18.3073252 9.8125 18.3125 C8.20696626 18.23210847 6.60184626 18.1352403 5 18 C4.67 17.01 4.34 16.02 4 15 C3.34 15 2.68 15 2 15 C0.875 8.25 0.875 8.25 2 6 C1.01 5.67 0.02 5.34 -1 5 C-0.67 3.35 -0.34 1.7 0 0 Z " fill="#4D546A" transform="translate(19,9)"/>
<path d="M0 0 C1.32 0 2.64 0 4 0 C4 1.32 4 2.64 4 4 C5.32 4.66 6.64 5.32 8 6 C7.34 8.31 6.68 10.62 6 13 C6.99 12.67 7.98 12.34 9 12 C9.94875 12.33 10.8975 12.66 11.875 13 C15.17235724 14.05515432 16.73686225 13.9597464 20 13 C20 12.34 20 11.68 20 11 C20.66 11 21.32 11 22 11 C22.495 11.99 22.495 11.99 23 13 C24.32 13 25.64 13 27 13 C27.33 11.68 27.66 10.36 28 9 C28.66 9 29.32 9 30 9 C30 10.32 30 11.64 30 13 C30.66 13 31.32 13 32 13 C32 11.02 32 9.04 32 7 C34 9 34 9 35 14 C42.92 14.33 50.84 14.66 59 15 C59 15.33 59 15.66 59 16 C34.25 16 9.5 16 -16 16 C-16 15.34 -16 14.68 -16 14 C-14.02 14 -12.04 14 -10 14 C-9.67 13.34 -9.34 12.68 -9 12 C-8.01 12.66 -7.02 13.32 -6 14 C-3.4745777 14.0255089 -3.4745777 14.0255089 -0.8125 13.625 C0.08855469 13.51414062 0.98960938 13.40328125 1.91796875 13.2890625 C2.60503906 13.19367187 3.29210937 13.09828125 4 13 C4.33 11.02 4.66 9.04 5 7 C2.69 7 0.38 7 -2 7 C-1.34 4.69 -0.68 2.38 0 0 Z " fill="#F4F5F6" transform="translate(80,35)"/>
<path d="M0 0 C1.5159375 0.061875 1.5159375 0.061875 3.0625 0.125 C4.0525 0.125 5.0425 0.125 6.0625 0.125 C9.72916667 0.125 13.39583333 0.125 17.0625 0.125 C17.0625 2.435 17.0625 4.745 17.0625 7.125 C17.7225 7.125 18.3825 7.125 19.0625 7.125 C19.3925 4.815 19.7225 2.505 20.0625 0.125 C21.0525 0.455 22.0425 0.785 23.0625 1.125 C21.7425 4.425 20.4225 7.725 19.0625 11.125 C18.4025 11.125 17.7425 11.125 17.0625 11.125 C17.0625 10.135 17.0625 9.145 17.0625 8.125 C16.0725 8.785 15.0825 9.445 14.0625 10.125 C13.0725 10.125 12.0825 10.125 11.0625 10.125 C10.7325 8.475 10.4025 6.825 10.0625 5.125 C9.0725 5.125 8.0825 5.125 7.0625 5.125 C6.629375 6.3315625 6.629375 6.3315625 6.1875 7.5625 C5.0625 10.125 5.0625 10.125 3.0625 11.125 C-2.17048969 11.57036082 -2.17048969 11.57036082 -4.875 10 C-5.9375 8.125 -5.9375 8.125 -5.75 5.0625 C-4.6766177 1.18181015 -4.10075941 0.1745004 0 0 Z " fill="#8E8F96" transform="translate(115.9375,27.875)"/>
<path d="M0 0 C0.99 0.66 1.98 1.32 3 2 C2.67 2.66 2.34 3.32 2 4 C1.34 3.67 0.68 3.34 0 3 C0.33 4.32 0.66 5.64 1 7 C0.34 7 -0.32 7 -1 7 C-0.67 7.33 -0.34 7.66 0 8 C0.5775 8.804375 1.155 9.60875 1.75 10.4375 C4.10028489 13.11421334 5.64557316 13.97503624 9 15 C9 15.66 9 16.32 9 17 C9.66 17.33 10.32 17.66 11 18 C11 18.66 11 19.32 11 20 C9.02 20.99 9.02 20.99 7 22 C7.99 22.33 8.98 22.66 10 23 C9.67 23.66 9.34 24.32 9 25 C13.66629496 28.1108633 17.79648451 28.12311555 23.3125 28.0625 C24.38113281 28.05347656 25.44976562 28.04445313 26.55078125 28.03515625 C27.76314453 28.01775391 27.76314453 28.01775391 29 28 C26.35757723 30.64242277 25.05587947 30.29852198 21.375 30.3125 C15.43192923 30.21261646 10.03454815 29.60411579 5.34765625 25.58203125 C4 24 4 24 3 21 C2.21625 20.38125 1.4325 19.7625 0.625 19.125 C-3.01403763 16.1791124 -4.48602266 13.42099616 -6.0625 9.0625 C-5.989585 5.48966506 -5.4902916 5.05851753 -3.0625 2.625 C-2.05734293 1.73203586 -1.04100187 0.85090587 0 0 Z " fill="#A8ADB1" transform="translate(8,44)"/>
<path d="M0 0 C1.32 1.65 2.64 3.3 4 5 C2 7 2 7 -0.8203125 7.1953125 C-1.91085938 7.17210937 -3.00140625 7.14890625 -4.125 7.125 C-5.22070312 7.10695313 -6.31640625 7.08890625 -7.4453125 7.0703125 C-8.28835937 7.04710937 -9.13140625 7.02390625 -10 7 C-9.67 9.64 -9.34 12.28 -9 15 C-8.67 14.34 -8.34 13.68 -8 13 C-8.33 12.01 -8.66 11.02 -9 10 C-5.94152152 9.45627049 -3.11227195 9 0 9 C0.21278058 13.46839215 -0.40861915 16.82262526 -2 21 C-2.721875 20.835 -3.44375 20.67 -4.1875 20.5 C-6.97515803 19.91977639 -6.97515803 19.91977639 -9.75 20 C-10.4925 20 -11.235 20 -12 20 C-13 19 -13 19 -13.09765625 16.49609375 C-13.04882812 12.24804688 -13.04882812 12.24804688 -13 8 C-16.96 7.67 -20.92 7.34 -25 7 C-25 6.67 -25 6.34 -25 6 C-20.94160515 5.42022931 -17.03884537 4.93579107 -12.9375 5 C-9.11932926 5 -5.71597772 4.89183465 -2 4 C-0.48705712 2.06402968 -0.48705712 2.06402968 0 0 Z " fill="#797F93" transform="translate(36,22)"/>
<path d="M0 0 C0.66 0 1.32 0 2 0 C1.87440667 6.02847992 -0.0329769 8.92933558 -4.171875 13.26171875 C-7.7441483 16.65843161 -9.60364239 18 -14.625 18 C-18 17 -18 17 -19.875 14.75 C-20.94206812 12.14161127 -21.60217254 9.78479225 -22 7 C-20.68 7 -19.36 7 -18 7 C-17.34 6.01 -16.68 5.02 -16 4 C-15.01 4.33 -14.02 4.66 -13 5 C-13 6.98 -13 8.96 -13 11 C-12.34 11 -11.68 11 -11 11 C-11.33 11.99 -11.66 12.98 -12 14 C-12.99 14 -13.98 14 -15 14 C-14.67 14.66 -14.34 15.32 -14 16 C-12.35 15.67 -10.7 15.34 -9 15 C-9 12.36 -9 9.72 -9 7 C-7.68 7 -6.36 7 -5 7 C-3.65835921 6.7018576 -2.32148827 6.37756808 -1 6 C-0.67 4.02 -0.34 2.04 0 0 Z " fill="#1D284C" transform="translate(42,48)"/>
<path d="M0 0 C2.875 -0.125 2.875 -0.125 6 0 C6.66 0.66 7.32 1.32 8 2 C8.66 1.34 9.32 0.68 10 0 C10 1.65 10 3.3 10 5 C9.01 5 8.02 5 7 5 C7 5.66 7 6.32 7 7 C5.02 7 3.04 7 1 7 C1 7.66 1 8.32 1 9 C25.75 9 50.5 9 76 9 C76 9.33 76 9.66 76 10 C50.92 10 25.84 10 0 10 C-1.231394 6.30581799 -0.64432764 3.7943739 0 0 Z " fill="#949597" transform="translate(63,42)"/>
<path d="M0 0 C0 1.98 0 3.96 0 6 C0.66 6 1.32 6 2 6 C2 4.68 2 3.36 2 2 C2.66 2 3.32 2 4 2 C4 3.65 4 5.3 4 7 C4.66 7 5.32 7 6 7 C6 5.35 6 3.7 6 2 C6.33 2 6.66 2 7 2 C7 3.98 7 5.96 7 8 C3.04 8 -0.92 8 -5 8 C-5 7.34 -5 6.68 -5 6 C-5.66 6 -6.32 6 -7 6 C-7 6.66 -7 7.32 -7 8 C-9.31 8 -11.62 8 -14 8 C-14.75 6.25 -14.75 6.25 -15 4 C-11.82172365 -1.72089744 -5.6975314 -0.35363988 0 0 Z " fill="#ACAFB4" transform="translate(95,53)"/>
<path d="M0 0 C2.12472576 -0.05386629 4.24983652 -0.09273071 6.375 -0.125 C7.55835937 -0.14820313 8.74171875 -0.17140625 9.9609375 -0.1953125 C13 0 13 0 15 2 C15.125 5.125 15.125 5.125 15 8 C14.01 7.67 13.02 7.34 12 7 C9.80961577 8.37168238 9.80961577 8.37168238 8 10 C7.67 9.67 7.34 9.34 7 9 C4.67182036 8.63239269 2.3381615 8.29758419 0 8 C0 5.36 0 2.72 0 0 Z " fill="#A3A8AC" transform="translate(64,53)"/>
<path d="M0 0 C4.29 0 8.58 0 13 0 C12.67 3.63 12.34 7.26 12 11 C3.125 9.125 3.125 9.125 2 8 C1.95936168 6.33382885 1.957279 4.66611905 2 3 C1.34 3 0.68 3 0 3 C0 2.01 0 1.02 0 0 Z " fill="#586483" transform="translate(11,29)"/>
<path d="M0 0 C2.1610211 3.24153166 2.64247553 4.23692901 2 8 C-0.5 10.3125 -0.5 10.3125 -3 12 C-5.4375 10.875 -5.4375 10.875 -8 9 C-8.8125 5.8125 -8.8125 5.8125 -9 3 C-8.34 3 -7.68 3 -7 3 C-7 2.01 -7 1.02 -7 0 C-4.27584084 -1.36207958 -2.87220643 -0.86166193 0 0 Z " fill="#CFD8E1" transform="translate(32,14)"/>
<path d="M0 0 C-0.33 2.31 -0.66 4.62 -1 7 C-2.98 7.66 -4.96 8.32 -7 9 C-7.33 8.67 -7.66 8.34 -8 8 C-11 7.83333333 -11 7.83333333 -14 8 C-14.33 8.33 -14.66 8.66 -15 9 C-16.52519276 8.91062197 -18.04681929 8.75462854 -19.5625 8.5625 C-20.38878906 8.46066406 -21.21507812 8.35882813 -22.06640625 8.25390625 C-22.70449219 8.17011719 -23.34257812 8.08632812 -24 8 C-24 7.34 -24 6.68 -24 6 C-21.56318413 5.49645133 -19.12564561 4.99703244 -16.6875 4.5 C-15.99720703 4.35691406 -15.30691406 4.21382813 -14.59570312 4.06640625 C-11.67475227 3.47374956 -8.98891878 3 -6 3 C-6 2.01 -6 1.02 -6 0 C-3 -1 -3 -1 0 0 Z " fill="#B2B6BB" transform="translate(45,63)"/>
<path d="M0 0 C2.31 0 4.62 0 7 0 C7.06058594 1.05960938 7.12117188 2.11921875 7.18359375 3.2109375 C7.26800127 4.59897221 7.35264917 5.98699232 7.4375 7.375 C7.47681641 8.07367188 7.51613281 8.77234375 7.55664062 9.4921875 C7.74280134 13.37360492 7.74280134 13.37360492 9 17 C8.01 17.99 7.02 18.98 6 20 C6.99 19.67 7.98 19.34 9 19 C9.33 19.99 9.66 20.98 10 22 C8.35 21.67 6.7 21.34 5 21 C4.67 21.66 4.34 22.32 4 23 C4 22.01 4 21.02 4 20 C3.01 19.67 2.02 19.34 1 19 C1.99 18.67 2.98 18.34 4 18 C4 17.01 4 16.02 4 15 C3.01 14.67 2.02 14.34 1 14 C0.67 13.01 0.34 12.02 0 11 C0.66 10.01 1.32 9.02 2 8 C1.01 7.67 0.02 7.34 -1 7 C-0.34 6.34 0.32 5.68 1 5 C0.34 4.01 -0.32 3.02 -1 2 C1.4375 2.6875 1.4375 2.6875 4 4 C4.8125 6.625 4.8125 6.625 5 9 C5.33 6.36 5.66 3.72 6 1 C4.02 1 2.04 1 0 1 C0 0.67 0 0.34 0 0 Z " fill="#4B536B" transform="translate(40,28)"/>
<path d="M0 0 C0.66 0 1.32 0 2 0 C2.33 1.65 2.66 3.3 3 5 C4.093125 5.0825 5.18625 5.165 6.3125 5.25 C10 6 10 6 13 10 C9.7 10 6.4 10 3 10 C2.67 11.32 2.34 12.64 2 14 C1.36345658 15.3479743 0.70394612 16.68596724 0 18 C-0.99 18 -1.98 18 -3 18 C-3 17.01 -3 16.02 -3 15 C-2.34 14.67 -1.68 14.34 -1 14 C-1.33 13.01 -1.66 12.02 -2 11 C-1.34 11 -0.68 11 0 11 C0 7.37 0 3.74 0 0 Z " fill="#20274B" transform="translate(11,32)"/>
<path d="M0 0 C0.33 0.99 0.66 1.98 1 3 C-0.65 3.33 -2.3 3.66 -4 4 C-3.01 4.33 -2.02 4.66 -1 5 C-1.99261785 7.97785354 -3.13193818 9.5341584 -5 12 C-5.69580267 13.31836295 -6.37224433 14.64791086 -7 16 C-7.99 15.67 -8.98 15.34 -10 15 C-10.81238966 12.1566362 -11.08159501 10.33453956 -10.375 7.4375 C-8.2457539 3.66292736 -4.56058202 0 0 0 Z " fill="#ADB1B6" transform="translate(19,5)"/>
<path d="M0 0 C2.31 0.66 4.62 1.32 7 2 C7.33 3.32 7.66 4.64 8 6 C9.32 5.34 10.64 4.68 12 4 C13.1875 6.6875 13.1875 6.6875 14 10 C12.75 12.875 12.75 12.875 11 15 C10.34 15 9.68 15 9 15 C9 14.34 9 13.68 9 13 C7.68 12.34 6.36 11.68 5 11 C5.33 9.68 5.66 8.36 6 7 C5.01 6.34 4.02 5.68 3 5 C3 4.34 3 3.68 3 3 C2.01 3.33 1.02 3.66 0 4 C0 2.68 0 1.36 0 0 Z " fill="#9FA4AA" transform="translate(36,7)"/>
<path d="M0 0 C1.98 0 3.96 0 6 0 C6.66 1.32 7.32 2.64 8 4 C7.01 4.495 7.01 4.495 6 5 C5.67 4.01 5.34 3.02 5 2 C4.01 1.67 3.02 1.34 2 1 C2.33 4.3 2.66 7.6 3 11 C0.36 11 -2.28 11 -5 11 C-5 9.68 -5 8.36 -5 7 C-6.98491642 7.26676204 -6.98491642 7.26676204 -9 8 C-9.33 8.99 -9.66 9.98 -10 11 C-10.66 11 -11.32 11 -12 11 C-10.8905928 7.51329166 -9.73662334 4.22515763 -8 1 C-7.34 1 -6.68 1 -6 1 C-5.73445313 1.56589844 -5.46890625 2.13179687 -5.1953125 2.71484375 C-4.84210938 3.44832031 -4.48890625 4.18179688 -4.125 4.9375 C-3.77695313 5.66839844 -3.42890625 6.39929687 -3.0703125 7.15234375 C-2.1315023 9.16332459 -2.1315023 9.16332459 0 10 C0 6.7 0 3.4 0 0 Z " fill="#5C5F67" transform="translate(89,28)"/>
<path d="M0 0 C3.14737182 0.69941596 6.02588876 1.76078698 9 3 C9 3.66 9 4.32 9 5 C8.01 5 7.02 5 6 5 C6 5.66 6 6.32 6 7 C10.00254456 7.09181134 10.00254456 7.09181134 14 7 C14.33 6.67 14.66 6.34 15 6 C13.35 6 11.7 6 10 6 C10 5.67 10 5.34 10 5 C19.67741935 4.83870968 19.67741935 4.83870968 24 7 C24 7.66 24 8.32 24 9 C7.70295793 9.62591769 7.70295793 9.62591769 1 6 C0.67 5.34 0.34 4.68 0 4 C0.33 3.67 0.66 3.34 1 3 C0.34 3 -0.32 3 -1 3 C-0.67 2.01 -0.34 1.02 0 0 Z " fill="#D1D3D9" transform="translate(15,64)"/>
<path d="M0 0 C0.21278058 4.46839215 -0.40861915 7.82262526 -2 12 C-2.66 11.67 -3.32 11.34 -4 11 C-4 10.34 -4 9.68 -4 9 C-5.98 9 -7.96 9 -10 9 C-9.649375 8.236875 -9.29875 7.47375 -8.9375 6.6875 C-7.67639116 3.95240621 -7.67639116 3.95240621 -9 1 C-6.04335481 -0.4783226 -3.25770263 -0.06032783 0 0 Z " fill="#BBBDC8" transform="translate(36,31)"/>
<path d="M0 0 C1.32 0 2.64 0 4 0 C4 1.32 4 2.64 4 4 C5.32 4.66 6.64 5.32 8 6 C7.34 8.31 6.68 10.62 6 13 C6.99 12.67 7.98 12.34 9 12 C11.6875 12.9375 11.6875 12.9375 14 14 C14 14.33 14 14.66 14 15 C9.05 15 4.1 15 -1 15 C-1 14.67 -1 14.34 -1 14 C0.65 13.67 2.3 13.34 4 13 C4.33 11.02 4.66 9.04 5 7 C2.69 7 0.38 7 -2 7 C-1.34 4.69 -0.68 2.38 0 0 Z " fill="#F8F9FB" transform="translate(80,35)"/>
<path d="M0 0 C1.93166016 0.01740234 1.93166016 0.01740234 3.90234375 0.03515625 C5.19269531 0.04417969 6.48304687 0.05320313 7.8125 0.0625 C8.81152344 0.07410156 9.81054688 0.08570313 10.83984375 0.09765625 C10.65421875 1.04640625 10.46859375 1.99515625 10.27734375 2.97265625 C9.55297743 5.99634418 9.55297743 5.99634418 10.83984375 8.09765625 C9.18984375 8.09765625 7.53984375 8.09765625 5.83984375 8.09765625 C5.83984375 6.11765625 5.83984375 4.13765625 5.83984375 2.09765625 C4.84984375 2.09765625 3.85984375 2.09765625 2.83984375 2.09765625 C2.83984375 3.74765625 2.83984375 5.39765625 2.83984375 7.09765625 C2.17984375 7.09765625 1.51984375 7.09765625 0.83984375 7.09765625 C0.83984375 5.44765625 0.83984375 3.79765625 0.83984375 2.09765625 C0.17984375 2.09765625 -0.48015625 2.09765625 -1.16015625 2.09765625 C-1.16015625 3.41765625 -1.16015625 4.73765625 -1.16015625 6.09765625 C-1.82015625 6.09765625 -2.48015625 6.09765625 -3.16015625 6.09765625 C-3.54234392 4.44150968 -3.87410727 2.77308601 -4.16015625 1.09765625 C-3.16015625 0.09765625 -3.16015625 0.09765625 0 0 Z " fill="#F9FAFA" transform="translate(98.16015625,52.90234375)"/>
<path d="M0 0 C3.63 0 7.26 0 11 0 C11 1.98 11 3.96 11 6 C5.375 8 5.375 8 2 8 C2 5.69 2 3.38 2 1 C1.34 0.67 0.68 0.34 0 0 Z " fill="#B4B7BA" transform="translate(74,42)"/>
<path d="M0 0 C0.99 0 1.98 0 3 0 C3 0.66 3 1.32 3 2 C3.66 2.33 4.32 2.66 5 3 C5 3.66 5 4.32 5 5 C3.02 5.99 3.02 5.99 1 7 C1.99 7.33 2.98 7.66 4 8 C3.67 8.66 3.34 9.32 3 10 C7.66629496 13.1108633 11.79648451 13.12311555 17.3125 13.0625 C18.38113281 13.05347656 19.44976562 13.04445313 20.55078125 13.03515625 C21.76314453 13.01775391 21.76314453 13.01775391 23 13 C20.35757723 15.64242277 19.05587947 15.29852198 15.375 15.3125 C9.27155912 15.20992116 4.25752975 14.42152654 -0.765625 10.6875 C-2 9 -2 9 -1.85546875 6.73828125 C-1.63503906 5.93777344 -1.41460937 5.13726562 -1.1875 4.3125 C-0.97480469 3.50425781 -0.76210937 2.69601563 -0.54296875 1.86328125 C-0.36378906 1.24839844 -0.18460938 0.63351563 0 0 Z " fill="#B2B4B6" transform="translate(14,59)"/>
<path d="M0 0 C0.33 0.99 0.66 1.98 1 3 C2.65 2.34 4.3 1.68 6 1 C6.39832031 1.60328125 6.79664063 2.2065625 7.20703125 2.828125 C7.73683594 3.62734375 8.26664063 4.4265625 8.8125 5.25 C9.33457031 6.03890625 9.85664063 6.8278125 10.39453125 7.640625 C11.87134122 9.81092481 13.40689873 11.91413768 15 14 C14.01 14.495 14.01 14.495 13 15 C12.01 14.34 11.02 13.68 10 13 C10.33 12.34 10.66 11.68 11 11 C10.2575 10.9175 9.515 10.835 8.75 10.75 C5.46476803 9.85402764 4.25401846 8.48719278 2 6 C1.34 5.67 0.68 5.34 0 5 C0 3.35 0 1.7 0 0 Z " fill="#E7EAEE" transform="translate(6,48)"/>
<path d="M0 0 C0.99 0 1.98 0 3 0 C3 1.65 3 3.3 3 5 C4.65 5 6.3 5 8 5 C8 3.35 8 1.7 8 0 C9.32 0.33 10.64 0.66 12 1 C11.67 4.3 11.34 7.6 11 11 C10.01 11 9.02 11 8 11 C8 9.35 8 7.7 8 6 C6.35 6 4.7 6 3 6 C3 7.65 3 9.3 3 11 C2.01 10.67 1.02 10.34 0 10 C0 6.7 0 3.4 0 0 Z " fill="#71727C" transform="translate(64,28)"/>
<path d="M0 0 C0.33 1.32 0.66 2.64 1 4 C1.99 3.67 2.98 3.34 4 3 C4 4.98 4 6.96 4 9 C4.66 9 5.32 9 6 9 C6 11.31 6 13.62 6 16 C4.1484375 15.76171875 4.1484375 15.76171875 2 15 C0.01804163 12.24728004 -1.14623891 9.27455204 -2 6 C-1.25 2.4375 -1.25 2.4375 0 0 Z " fill="#202847" transform="translate(34,38)"/>
<path d="M0 0 C4.55555556 0.55555556 4.55555556 0.55555556 6 2 C6.125 5 6.125 5 6 8 C5 9 5 9 2.5625 9.1875 C0 9 0 9 -2 7 C-2.25 4.5 -2.25 4.5 -2 2 C-1.34 1.34 -0.68 0.68 0 0 Z " fill="#F7F8F9" transform="translate(114,29)"/>
<path d="M0 0 C0.33 0.99 0.66 1.98 1 3 C0.505 3.37125 0.01 3.7425 -0.5 4.125 C-2.5896312 6.737039 -2.06945921 8.73541723 -2 12 C-2.66 12.66 -3.32 13.32 -4 14 C-4.50403768 12.70990357 -5.00309926 11.41786211 -5.5 10.125 C-5.7784375 9.40570313 -6.056875 8.68640625 -6.34375 7.9453125 C-7 6 -7 6 -7 4 C-9.31 4 -11.62 4 -14 4 C-14 3.34 -14 2.68 -14 2 C-6.25 1.875 -6.25 1.875 -4 3 C-4 2.34 -4 1.68 -4 1 C-2 0 -2 0 0 0 Z " fill="#40495A" transform="translate(39,10)"/>
<path d="M0 0 C2 2 2 2 3 7 C10.92 7.33 18.84 7.66 27 8 C27 8.33 27 8.66 27 9 C14.46 9 1.92 9 -11 9 C-11 8.67 -11 8.34 -11 8 C-9.01432292 7.77213542 -7.02864583 7.54427083 -5.04296875 7.31640625 C-2.80603607 7.02829265 -2.80603607 7.02829265 0 6 C0 4.02 0 2.04 0 0 Z " fill="#EEF0F1" transform="translate(112,42)"/>
<path d="M0 0 C2.875 -0.125 2.875 -0.125 6 0 C6.66 0.66 7.32 1.32 8 2 C8.66 1.34 9.32 0.68 10 0 C10 1.65 10 3.3 10 5 C9.01 5 8.02 5 7 5 C7 5.66 7 6.32 7 7 C5.02 7 3.04 7 1 7 C1 7.66 1 8.32 1 9 C0.34 9 -0.32 9 -1 9 C-0.67 6.03 -0.34 3.06 0 0 Z " fill="#A4A9AC" transform="translate(63,42)"/>
<path d="M0 0 C0.495 0.515625 0.99 1.03125 1.5 1.5625 C1.17 2.2225 0.84 2.8825 0.5 3.5625 C-1.48 3.5625 -3.46 3.5625 -5.5 3.5625 C-5.5 4.8825 -5.5 6.2025 -5.5 7.5625 C-6.49 7.5625 -7.48 7.5625 -8.5 7.5625 C-8.5 6.9025 -8.5 6.2425 -8.5 5.5625 C-9.16 5.2325 -9.82 4.9025 -10.5 4.5625 C-10.5 2.89583333 -10.5 1.22916667 -10.5 -0.4375 C-3.11538462 -1.79134615 -3.11538462 -1.79134615 0 0 Z " fill="#172043" transform="translate(28.5,45.4375)"/>
<path d="M0 0 C0 4.62 0 9.24 0 14 C-0.33 14 -0.66 14 -1 14 C-1.335939 12.5422647 -1.66866624 11.08378894 -2 9.625 C-2.185625 8.81289063 -2.37125 8.00078125 -2.5625 7.1640625 C-3 5 -3 5 -3 3 C-6.67387495 2.14701624 -10.0447393 1.89210529 -13.8125 1.9375 C-14.78832031 1.94652344 -15.76414062 1.95554687 -16.76953125 1.96484375 C-17.50558594 1.97644531 -18.24164062 1.98804688 -19 2 C-19.33 1.34 -19.66 0.68 -20 0 C-13.12631267 -0.74464946 -6.83079148 -1.18225237 0 0 Z " fill="#0C1131" transform="translate(46,29)"/>
<path d="M0 0 C3.3 0 6.6 0 10 0 C9.67 0.66 9.34 1.32 9 2 C7.68 2 6.36 2 5 2 C5 3.98 5 5.96 5 8 C3.35 8 1.7 8 0 8 C0 5.36 0 2.72 0 0 Z " fill="#F4F6F7" transform="translate(64,53)"/>
<path d="M0 0 C1.98 0 3.96 0 6 0 C6.66 1.32 7.32 2.64 8 4 C7.01 4.495 7.01 4.495 6 5 C5.67 4.01 5.34 3.02 5 2 C4.34 1.67 3.68 1.34 3 1 C3 4.3 3 7.6 3 11 C-0.3125 11.25 -0.3125 11.25 -4 11 C-5.9375 9.125 -5.9375 9.125 -7 7 C-7 6.34 -7 5.68 -7 5 C-6.34 5 -5.68 5 -5 5 C-4.7525 5.639375 -4.505 6.27875 -4.25 6.9375 C-3.03378366 9.49019039 -3.03378366 9.49019039 1 10 C0.67 6.7 0.34 3.4 0 0 Z " fill="#63666C" transform="translate(100,28)"/>
<path d="M0 0 C0.66 0 1.32 0 2 0 C1.63118644 6.14689273 0.09949571 8.69027374 -4 13 C-4.99 12.67 -5.98 12.34 -7 12 C-7 11.34 -7 10.68 -7 10 C-7.66 10 -8.32 10 -9 10 C-8.67 8.68 -8.34 7.36 -8 6 C-7.21625 6.185625 -6.4325 6.37125 -5.625 6.5625 C-3.02910225 7.25962266 -3.02910225 7.25962266 -1 6 C-0.34227572 2.97065509 -0.34227572 2.97065509 0 0 Z " fill="#151B3B" transform="translate(42,48)"/>
<path d="M0 0 C2.10409639 -0.02701408 4.20829178 -0.04640223 6.3125 -0.0625 C7.48425781 -0.07410156 8.65601563 -0.08570313 9.86328125 -0.09765625 C13 0 13 0 16 1 C15.67 1.99 15.34 2.98 15 4 C14.01 3.67 13.02 3.34 12 3 C9.93854893 2.931009 7.87498599 2.91532273 5.8125 2.9375 C4.72582031 2.94652344 3.63914062 2.95554688 2.51953125 2.96484375 C1.68808594 2.97644531 0.85664063 2.98804688 0 3 C0 2.01 0 1.02 0 0 Z " fill="#CCCED7" transform="translate(14,42)"/>
<path d="M0 0 C2.95409701 1.37154504 5.44008376 2.98863724 8 5 C6.68 5.99 5.36 6.98 4 8 C4 7.34 4 6.68 4 6 C1.36 6 -1.28 6 -4 6 C-4 4 -4 4 -2 1.875 C-1.34 1.25625 -0.68 0.6375 0 0 Z " fill="#F2F2F3" transform="translate(109,36)"/>
<path d="M0 0 C0.66 0 1.32 0 2 0 C2 0.66 2 1.32 2 2 C2.66 2 3.32 2 4 2 C4 1.34 4 0.68 4 0 C4.66 0 5.32 0 6 0 C6.33 0.99 6.66 1.98 7 3 C7.33 2.34 7.66 1.68 8 1 C8.99 1.33 9.98 1.66 11 2 C10.67 3.32 10.34 4.64 10 6 C10 5.34 10 4.68 10 4 C9.34 4 8.68 4 8 4 C8 4.66 8 5.32 8 6 C6.68 6 5.36 6 4 6 C4 5.34 4 4.68 4 4 C3.34 4 2.68 4 2 4 C2 4.66 2 5.32 2 6 C1.34 6 0.68 6 0 6 C0 4.02 0 2.04 0 0 Z " fill="#82888C" transform="translate(121,42)"/>
<path d="M0 0 C1.32 0.33 2.64 0.66 4 1 C4 1.99 4 2.98 4 4 C4.66 4.33 5.32 4.66 6 5 C6 3.35 6 1.7 6 0 C6.99 0.66 7.98 1.32 9 2 C9.66 1.34 10.32 0.68 11 0 C11 1.65 11 3.3 11 5 C10.01 4.67 9.02 4.34 8 4 C7.67 4.66 7.34 5.32 7 6 C4.69 6 2.38 6 0 6 C0 4.02 0 2.04 0 0 Z " fill="#6E7378" transform="translate(86,42)"/>
<path d="M0 0 C0.99 0.33 1.98 0.66 3 1 C3.7166207 3.31847874 4.38242027 5.65319703 5 8 C5.66 8.66 6.32 9.32 7 10 C4.69 10.33 2.38 10.66 0 11 C0 7.37 0 3.74 0 0 Z " fill="#BFC0C5" transform="translate(103,29)"/>
<path d="M0 0 C1.32 0.66 2.64 1.32 4 2 C2.73058503 5.91402949 1.48832306 7.79072873 -2 10 C-2.6875 8.375 -2.6875 8.375 -3 6 C-1.5625 2.75 -1.5625 2.75 0 0 Z " fill="#EEF0F1" transform="translate(45,49)"/>
<path d="M0 0 C3 1 3 1 4.75 4.375 C6 8 6 8 5 11 C2.4375 8.75 2.4375 8.75 0 6 C0.1875 3.6875 0.1875 3.6875 1 2 C0.01 1.67 -0.98 1.34 -2 1 C-1.34 0.67 -0.68 0.34 0 0 Z " fill="#F1F3F5" transform="translate(29,41)"/>
<path d="M0 0 C2.475 0.99 2.475 0.99 5 2 C5 5.63 5 9.26 5 13 C4.01 12.67 3.02 12.34 2 12 C1.67 11.01 1.34 10.02 1 9 C1.66 8.01 2.32 7.02 3 6 C2.01 5.67 1.02 5.34 0 5 C0.66 4.34 1.32 3.68 2 3 C1.34 2.01 0.68 1.02 0 0 Z " fill="#9BA7BD" transform="translate(39,30)"/>
<path d="M0 0 C1.65 0.99 3.3 1.98 5 3 C4.67 4.98 4.34 6.96 4 9 C3.67 7.68 3.34 6.36 3 5 C2.236875 5.515625 1.47375 6.03125 0.6875 6.5625 C-0.199375 7.036875 -1.08625 7.51125 -2 8 C-2.99 7.67 -3.98 7.34 -5 7 C-4.34 7 -3.68 7 -3 7 C-2.690625 6.030625 -2.38125 5.06125 -2.0625 4.0625 C-1 1 -1 1 0 0 Z " fill="#DDE1E3" transform="translate(16,12)"/>
<path d="M0 0 C0.33 0.66 0.66 1.32 1 2 C1.66 2 2.32 2 3 2 C2 5 2 5 -0.125 6.75 C-3.80278035 8.34903493 -6.14025994 7.83249295 -10 7 C-9.34 6.67 -8.68 6.34 -8 6 C-8 5.01 -8 4.02 -8 3 C-6.68 3.33 -5.36 3.66 -4 4 C-4.99 4 -5.98 4 -7 4 C-6.67 4.66 -6.34 5.32 -6 6 C-4.35 5.67 -2.7 5.34 -1 5 C-0.67 3.35 -0.34 1.7 0 0 Z " fill="#353951" transform="translate(34,58)"/>
<path d="M0 0 C0.66 0.99 1.32 1.98 2 3 C2.33 2.34 2.66 1.68 3 1 C3.66 1 4.32 1 5 1 C5.33 2.65 5.66 4.3 6 6 C5.67 5.34 5.34 4.68 5 4 C4.34 4 3.68 4 3 4 C3 4.66 3 5.32 3 6 C0.1875 7.125 0.1875 7.125 -3 8 C-3.99 7.34 -4.98 6.68 -6 6 C-5.34 6 -4.68 6 -4 6 C-3.67 5.01 -3.34 4.02 -3 3 C-2.01 3.66 -1.02 4.32 0 5 C0 3.35 0 1.7 0 0 Z " fill="#ACB0B4" transform="translate(97,42)"/>
<path d="M0 0 C0.66 0 1.32 0 2 0 C1.67 1.32 1.34 2.64 1 4 C2.32 4.33 3.64 4.66 5 5 C5 5.66 5 6.32 5 7 C3.35 7 1.7 7 0 7 C0 7.99 0 8.98 0 10 C-0.66 10 -1.32 10 -2 10 C-1.125 2.25 -1.125 2.25 0 0 Z " fill="#071038" transform="translate(26,54)"/>
<path d="M0 0 C1.65 0.33 3.3 0.66 5 1 C4.67 2.65 4.34 4.3 4 6 C2.35 5.67 0.7 5.34 -1 5 C-0.67 3.35 -0.34 1.7 0 0 Z " fill="#A1A6A9" transform="translate(115,42)"/>
<path d="M0 0 C1.25541557 3.76624671 0.37061958 5.37188934 -1 9 C-1.66 8.67 -2.32 8.34 -3 8 C-3 7.34 -3 6.68 -3 6 C-4.98 6 -6.96 6 -9 6 C-8.67 5.01 -8.34 4.02 -8 3 C-6.865625 2.87625 -5.73125 2.7525 -4.5625 2.625 C-3.386875 2.41875 -2.21125 2.2125 -1 2 C-0.67 1.34 -0.34 0.68 0 0 Z " fill="#ECEFF1" transform="translate(35,34)"/>
<path d="M0 0 C1.98 0 3.96 0 6 0 C6.33 0.99 6.66 1.98 7 3 C6.01 4.485 6.01 4.485 5 6 C3.35 5.67 1.7 5.34 0 5 C0 3.35 0 1.7 0 0 Z " fill="#687480" transform="translate(26,17)"/>
<path d="M0 0 C2.0625 0.4375 2.0625 0.4375 4 1 C3.773125 1.598125 3.54625 2.19625 3.3125 2.8125 C3.209375 3.534375 3.10625 4.25625 3 5 C4.41666667 6.58333333 4.41666667 6.58333333 6 8 C6 8.99 6 9.98 6 11 C5.01 11 4.02 11 3 11 C1.68 7.7 0.36 4.4 -1 1 C-0.67 0.67 -0.34 0.34 0 0 Z " fill="#313752" transform="translate(38,35)"/>
<path d="M0 0 C1.65 0.33 3.3 0.66 5 1 C4.67 1.99 4.34 2.98 4 4 C3.34 4 2.68 4 2 4 C2 5.65 2 7.3 2 9 C1.01 9 0.02 9 -1 9 C-1.33 7.02 -1.66 5.04 -2 3 C-1.34 3 -0.68 3 0 3 C0 2.01 0 1.02 0 0 Z " fill="#A0ABB8" transform="translate(25,14)"/>
<path d="M0 0 C3.375 0.625 3.375 0.625 7 2 C8.4375 5.125 8.4375 5.125 9 8 C7 7 5 6 3 5 C3 4.34 3 3.68 3 3 C2.01 3.33 1.02 3.66 0 4 C0 2.68 0 1.36 0 0 Z " fill="#A9AFB5" transform="translate(36,7)"/>
<path d="M0 0 C2 2 2 2 3 5 C1.02 5.99 1.02 5.99 -1 7 C-1.33 6.34 -1.66 5.68 -2 5 C-3.98 5.33 -5.96 5.66 -8 6 C-7.67 5.01 -7.34 4.02 -7 3 C-4 1.875 -4 1.875 -1 1 C-0.67 0.67 -0.34 0.34 0 0 Z " fill="#B9BFC6" transform="translate(46,58)"/>
<path d="M0 0 C0.99 0.33 1.98 0.66 3 1 C2.34 2.65 1.68 4.3 1 6 C0.34 5.67 -0.32 5.34 -1 5 C-1.99 5.495 -1.99 5.495 -3 6 C-5.125 5.5625 -5.125 5.5625 -7 5 C-6.67 3.68 -6.34 2.36 -6 1 C-5.34 1.33 -4.68 1.66 -4 2 C-3.34 2 -2.68 2 -2 2 C-1.34 1.34 -0.68 0.68 0 0 Z " fill="#9A9DA4" transform="translate(47,55)"/>
<path d="M0 0 C2.64 0 5.28 0 8 0 C8 1.98 8 3.96 8 6 C7.34 6 6.68 6 6 6 C6 4.68 6 3.36 6 2 C5.34 2 4.68 2 4 2 C4 3.32 4 4.64 4 6 C3.34 6 2.68 6 2 6 C2 4.35 2 2.7 2 1 C1.34 0.67 0.68 0.34 0 0 Z " fill="#8C9194" transform="translate(104,42)"/>
<path d="M0 0 C3.14737182 0.69941596 6.02588876 1.76078698 9 3 C8.0409375 3.1546875 8.0409375 3.1546875 7.0625 3.3125 C6.381875 3.539375 5.70125 3.76625 5 4 C4.67 4.99 4.34 5.98 4 7 C2.68 6.34 1.36 5.68 0 5 C0.99 4.34 1.98 3.68 3 3 C1.68 3 0.36 3 -1 3 C-0.67 2.01 -0.34 1.02 0 0 Z " fill="#BDC0C5" transform="translate(15,64)"/>
<path d="M0 0 C2 3 2 3 1.625 5.1875 C1.41875 5.785625 1.2125 6.38375 1 7 C-1.97 6.505 -1.97 6.505 -5 6 C-5 4.68 -5 3.36 -5 2 C-4.34 2 -3.68 2 -3 2 C-3 2.66 -3 3.32 -3 4 C-2.01 4 -1.02 4 0 4 C0 2.68 0 1.36 0 0 Z " fill="#C6CED8" transform="translate(23,49)"/>
<path d="M0 0 C0.99 0.66 1.98 1.32 3 2 C2.67 2.66 2.34 3.32 2 4 C1.34 3.67 0.68 3.34 0 3 C0.33 4.32 0.66 5.64 1 7 C-0.65 6.67 -2.3 6.34 -4 6 C-4.33 7.32 -4.66 8.64 -5 10 C-5.68359375 8.203125 -5.68359375 8.203125 -6 6 C-4.78515625 4.296875 -4.78515625 4.296875 -3.0625 2.75 C-2.21365234 1.96882813 -2.21365234 1.96882813 -1.34765625 1.171875 C-0.90292969 0.78515625 -0.45820312 0.3984375 0 0 Z " fill="#9BA2AB" transform="translate(8,44)"/>
<path d="M0 0 C3.46566434 5.19849651 5.46188968 9.68750771 5 16 C3 13 3 13 3 10 C2.34 10 1.68 10 1 10 C0.67 6.7 0.34 3.4 0 0 Z " fill="#D7DEE8" transform="translate(37,37)"/>
<path d="M0 0 C0.66 0.99 1.32 1.98 2 3 C-4.625 3.125 -4.625 3.125 -8 2 C-8 1.34 -8 0.68 -8 0 C-4.67212881 -1.1092904 -3.3006216 -1.01557588 0 0 Z " fill="#0D173A" transform="translate(22,39)"/>
<path d="M0 0 C3.96 0 7.92 0 12 0 C12 0.66 12 1.32 12 2 C4.375 3 4.375 3 1 3 C0.67 2.01 0.34 1.02 0 0 Z " fill="#F3F6F8" transform="translate(21,9)"/>
<path d="M0 0 C0.99 0.33 1.98 0.66 3 1 C2.25 7.75 2.25 7.75 0 10 C-1.125 8.375 -1.125 8.375 -2 6 C-1.125 2.75 -1.125 2.75 0 0 Z " fill="#A9ABB0" transform="translate(52,48)"/>
<path d="M0 0 C4.29 0 8.58 0 13 0 C13 1.65 13 3.3 13 5 C12.34 5 11.68 5 11 5 C10.67 5.99 10.34 6.98 10 8 C10 6.02 10 4.04 10 2 C6.7 1.67 3.4 1.34 0 1 C0 0.67 0 0.34 0 0 Z " fill="#171D37" transform="translate(11,29)"/>
<path d="M0 0 C2.64 0 5.28 0 8 0 C7.67 0.66 7.34 1.32 7 2 C4.4375 2.625 4.4375 2.625 2 3 C2 3.66 2 4.32 2 5 C2.99 5.33 3.98 5.66 5 6 C3.35 6.66 1.7 7.32 0 8 C0 5.36 0 2.72 0 0 Z " fill="#494D65" transform="translate(26,30)"/>
<path d="M0 0 C1.32 0 2.64 0 4 0 C4 0.66 4 1.32 4 2 C5.32 2.33 6.64 2.66 8 3 C7.01 3 6.02 3 5 3 C5.66 4.32 6.32 5.64 7 7 C4.13302508 5.71480435 2.02392288 4.42870746 0 2 C0 1.34 0 0.68 0 0 Z " fill="#050E32" transform="translate(16,55)"/>
<path d="M0 0 C0.99 0.33 1.98 0.66 3 1 C3 3.31 3 5.62 3 8 C0.525 7.01 0.525 7.01 -2 6 C-1.34 5.67 -0.68 5.34 0 5 C0 3.35 0 1.7 0 0 Z " fill="#E7EBED" transform="translate(73,42)"/>
<path d="M0 0 C0.33 1.32 0.66 2.64 1 4 C1.99 3.67 2.98 3.34 4 3 C4 4.98 4 6.96 4 9 C2.02 8.01 0.04 7.02 -2 6 C-1.34 4.02 -0.68 2.04 0 0 Z " fill="#4D556F" transform="translate(34,38)"/>
<path d="M0 0 C1.65 0 3.3 0 5 0 C5 1.65 5 3.3 5 5 C3.35 5 1.7 5 0 5 C0 3.35 0 1.7 0 0 Z " fill="#F5F5F7" transform="translate(67,28)"/>
<path d="M0 0 C3.57104439 1.87949705 5.54744301 3.17053157 7 7 C5.35 7.33 3.7 7.66 2 8 C2 7.01 2 6.02 2 5 C1.37400383 3.31763529 0.71247732 1.6476038 0 0 Z " fill="#C2C8CD" transform="translate(8,55)"/>
<path d="M0 0 C1.67542976 0.28604898 3.34385343 0.61781233 5 1 C5 1.99 5 2.98 5 4 C3.35 4.33 1.7 4.66 0 5 C-0.5625 3.0625 -0.5625 3.0625 -1 1 C-0.67 0.67 -0.34 0.34 0 0 Z " fill="#ECEFF2" transform="translate(25,48)"/>
<path d="M0 0 C2 3.875 2 3.875 2 5 C3.65 5.33 5.3 5.66 7 6 C6.67 6.66 6.34 7.32 6 8 C3.69 8 1.38 8 -1 8 C-1 5.16032769 -0.59732819 2.76264289 0 0 Z " fill="#8D939C" transform="translate(25,34)"/>
<path d="M0 0 C0.66 0 1.32 0 2 0 C2.66 1.65 3.32 3.3 4 5 C3.34 5.66 2.68 6.32 2 7 C1.01 6.34 0.02 5.68 -1 5 C-0.67 3.35 -0.34 1.7 0 0 Z " fill="#787D8D" transform="translate(19,9)"/>
<path d="M0 0 C1.32 0.66 2.64 1.32 4 2 C4 2.66 4 3.32 4 4 C0.535 5.485 0.535 5.485 -3 7 C-3.66 6.01 -4.32 5.02 -5 4 C-3.35 3.67 -1.7 3.34 0 3 C0 2.01 0 1.02 0 0 Z " fill="#CCD0D4" transform="translate(19,4)"/>
<path d="M0 0 C1.32 0.33 2.64 0.66 4 1 C4.33 2.65 4.66 4.3 5 6 C3.35 6 1.7 6 0 6 C0 4.02 0 2.04 0 0 Z " fill="#6A7178" transform="translate(104,55)"/>
<path d="M0 0 C2.64752004 2.57784846 4.94432065 4.91648098 7 8 C6.01 8.495 6.01 8.495 5 9 C4.01 8.34 3.02 7.68 2 7 C2.33 6.34 2.66 5.68 3 5 C2.01 5 1.02 5 0 5 C0 3.35 0 1.7 0 0 Z " fill="#C8CDD6" transform="translate(14,54)"/>
<path d="M0 0 C1.32 0.33 2.64 0.66 4 1 C3.67 2.65 3.34 4.3 3 6 C2.01 6 1.02 6 0 6 C0 4.02 0 2.04 0 0 Z " fill="#727681" transform="translate(64,55)"/>
<path d="M0 0 C2.31 0 4.62 0 7 0 C6.525625 0.5775 6.05125 1.155 5.5625 1.75 C4.0515133 3.92582084 3.45963849 5.42602448 3 8 C2.67 8 2.34 8 2 8 C1.34 5.36 0.68 2.72 0 0 Z " fill="#E9EBEC" transform="translate(77,53)"/>
<path d="M0 0 C0.66 0.33 1.32 0.66 2 1 C2 3.31 2 5.62 2 8 C1.34 8 0.68 8 0 8 C0 7.34 0 6.68 0 6 C-0.66 6 -1.32 6 -2 6 C-2 4.35 -2 2.7 -2 1 C-1.34 0.67 -0.68 0.34 0 0 Z " fill="#F5F8F9" transform="translate(32,52)"/>
<path d="M0 0 C1.32 0.33 2.64 0.66 4 1 C4 1.99 4 2.98 4 4 C3.34 4 2.68 4 2 4 C1.67 5.65 1.34 7.3 1 9 C0.67 9 0.34 9 0 9 C0 6.03 0 3.06 0 0 Z " fill="#D8DAE0" transform="translate(91,29)"/>
<path d="M0 0 C2 3 2 3 2 6 C1.01 6.33 0.02 6.66 -1 7 C-1.33 7.99 -1.66 8.98 -2 10 C-2.66 10 -3.32 10 -4 10 C-2.8905928 6.51329166 -1.73662334 3.22515763 0 0 Z " fill="#9EA0A4" transform="translate(81,29)"/>
<path d="M0 0 C0.99 0 1.98 0 3 0 C3 0.66 3 1.32 3 2 C3.66 2.33 4.32 2.66 5 3 C5 3.66 5 4.32 5 5 C3.02 5.33 1.04 5.66 -1 6 C-0.67 4.02 -0.34 2.04 0 0 Z " fill="#696F7A" transform="translate(14,59)"/>
<path d="M0 0 C0.99 0 1.98 0 3 0 C2.88637738 1.4800841 2.75877092 2.95910074 2.625 4.4375 C2.52058594 5.67306641 2.52058594 5.67306641 2.4140625 6.93359375 C2.27742188 7.61550781 2.14078125 8.29742187 2 9 C1.01 9.495 1.01 9.495 0 10 C0 6.7 0 3.4 0 0 Z " fill="#E0E6EC" transform="translate(23,30)"/>
<path d="M0 0 C4 4.875 4 4.875 4 6 C1.03 6 -1.94 6 -5 6 C-4.360625 5.38125 -3.72125 4.7625 -3.0625 4.125 C-0.96116416 2.17402388 -0.96116416 2.17402388 0 0 Z " fill="#B9C0C7" transform="translate(36,22)"/>
<path d="M0 0 C0 1.65 0 3.3 0 5 C-0.99 5.495 -0.99 5.495 -2 6 C-2.33 5.01 -2.66 4.02 -3 3 C-4.49985609 1.33289654 -4.49985609 1.33289654 -6 0 C-3 -1 -3 -1 0 0 Z " fill="#7D838D" transform="translate(45,63)"/>
<path d="M0 0 C0.99 0.33 1.98 0.66 3 1 C2.67 2.98 2.34 4.96 2 7 C1.34 7 0.68 7 0 7 C-0.38133299 5.0085944 -0.71325582 3.00720923 -1 1 C-0.67 0.67 -0.34 0.34 0 0 Z " fill="#EEEEF2" transform="translate(133,28)"/>
<path d="M0 0 C0.33 0.66 0.66 1.32 1 2 C1.99 2.66 2.98 3.32 4 4 C1.36 4 -1.28 4 -4 4 C-4 3.01 -4 2.02 -4 1 C-2 0 -2 0 0 0 Z " fill="#BCBFC8" transform="translate(23,24)"/>
<path d="M0 0 C1.32 0 2.64 0 4 0 C3 2 2 4 1 6 C0.01 6 -0.98 6 -2 6 C-1.49396008 3.83125748 -1.00016187 2.00032373 0 0 Z " fill="#C4C9CE" transform="translate(10,12)"/>
<path d="M0 0 C0.33 0.99 0.66 1.98 1 3 C-1.475 4.485 -1.475 4.485 -4 6 C-4 4.35 -4 2.7 -4 1 C-2 0 -2 0 0 0 Z " fill="#6E7785" transform="translate(39,10)"/>
<path d="M0 0 C-1.32 1.32 -2.64 2.64 -4 4 C-4.99 3.67 -5.98 3.34 -7 3 C-7 2.34 -7 1.68 -7 1 C-3.375 -1.125 -3.375 -1.125 0 0 Z " fill="#D3D8E3" transform="translate(34,61)"/>
<path d="M0 0 C2.35953094 2.35953094 2.49141413 3.77895617 3 7 C2.01 7.495 2.01 7.495 1 8 C-1.125 7.0625 -1.125 7.0625 -3 6 C-2.01 6 -1.02 6 0 6 C0 4.02 0 2.04 0 0 Z " fill="#E0E5E7" transform="translate(112,42)"/>
<path d="M0 0 C0.66 0.33 1.32 0.66 2 1 C1.67 2.32 1.34 3.64 1 5 C-0.65 4.67 -2.3 4.34 -4 4 C-2.68 2.68 -1.36 1.36 0 0 Z " fill="#5F677A" transform="translate(33,22)"/>
<path d="M0 0 C0 2 0 4 0 6 C-0.66 6 -1.32 6 -2 6 C-2.33 7.32 -2.66 8.64 -3 10 C-3.33 7.69 -3.66 5.38 -4 3 C-2.68 2.01 -1.36 1.02 0 0 Z " fill="#E2E5EA" transform="translate(40,12)"/>
<path d="M0 0 C0.99 0 1.98 0 3 0 C2.67 1.32 2.34 2.64 2 4 C-1.3 3.67 -4.6 3.34 -8 3 C-8 2.67 -8 2.34 -8 2 C-5.36 2 -2.72 2 0 2 C0 1.34 0 0.68 0 0 Z " fill="#C9CED3" transform="translate(33,9)"/>
<path d="M0 0 C2.475 0.99 2.475 0.99 5 2 C4.67 2.66 4.34 3.32 4 4 C4 4.66 4 5.32 4 6 C2.68 5.34 1.36 4.68 0 4 C0 2.68 0 1.36 0 0 Z " fill="#A6A9AC" transform="translate(13,65)"/>
<path d="M0 0 C0.66 0.33 1.32 0.66 2 1 C2.59355614 3.64860427 2.74209269 6.29197322 3 9 C2.34 9 1.68 9 1 9 C-1.09230769 4.56923077 -1.09230769 4.56923077 -0.625 1.6875 C-0.41875 1.130625 -0.2125 0.57375 0 0 Z " fill="#B9BFC6" transform="translate(4,50)"/>
<path d="M0 0 C0.66 0 1.32 0 2 0 C2.33 1.98 2.66 3.96 3 6 C1.68 6.33 0.36 6.66 -1 7 C-1 6.01 -1 5.02 -1 4 C-0.34 3.67 0.32 3.34 1 3 C0.67 2.01 0.34 1.02 0 0 Z " fill="#3B4459" transform="translate(9,43)"/>
<path d="M0 0 C2 0 2 0 3.625 1.5 C4.07875 1.995 4.5325 2.49 5 3 C4.67 3.66 4.34 4.32 4 5 C3.34 4.67 2.68 4.34 2 4 C2 4.66 2 5.32 2 6 C1.34 6 0.68 6 0 6 C0 4.02 0 2.04 0 0 Z " fill="#74797D" transform="translate(121,42)"/>
<path d="M0 0 C1.32 0.66 2.64 1.32 4 2 C2.68 2.99 1.36 3.98 0 5 C0 4.34 0 3.68 0 3 C-0.99 2.67 -1.98 2.34 -3 2 C-2.01 1.34 -1.02 0.68 0 0 Z " fill="#FAFBFB" transform="translate(113,39)"/>
<path d="M0 0 C0.125 2.875 0.125 2.875 0 6 C-0.66 6.66 -1.32 7.32 -2 8 C-3 7 -3 7 -3.0625 3.9375 C-3.041875 2.968125 -3.02125 1.99875 -3 1 C-1 0 -1 0 0 0 Z " fill="#4D5569" transform="translate(37,16)"/>
<path d="M0 0 C0.66 0.66 1.32 1.32 2 2 C0.515 4.475 0.515 4.475 -1 7 C-1.99 6.67 -2.98 6.34 -4 6 C-4 5.34 -4 4.68 -4 4 C-3.34 4 -2.68 4 -2 4 C-1.34 2.68 -0.68 1.36 0 0 Z " fill="#696E75" transform="translate(13,14)"/>
</svg>
