<svg xmlns="http://www.w3.org/2000/svg" width="120" height="160" viewBox="0 0 120 160">
  <rect width="120" height="160" fill="white" rx="12"/>
  <path d="M25 35 h70 v60 c0 22-18 40-40 40s-40-18-40-40z" fill="#0b1f3a" stroke="#0b1f3a" stroke-width="4"/>
  <path d="M35 45 h50 v40 c0 15-12 27-25 27s-25-12-25-27z" fill="white"/>
  <path d="M45 50 h30 v18 h-30z" fill="#0b1f3a"/>
  <path d="M60 88 c-10 0-18-8-18-18 h36 c0 10-8 18-18 18z" fill="#0b1f3a"/>
  <path d="M60 115 c12 0 23-8 27-20 -4 17-20 30-38 30s-34-13-38-30c4 12 15 20 27 20 7 0 14-2 20-6 6 4 13 6 20 6z" fill="white" opacity="0.8"/>
  <text x="60" y="142" text-anchor="middle" font-family="'Georgia', serif" font-size="18" fill="#0b1f3a">HARROW</text>
  <text x="60" y="155" text-anchor="middle" font-family="'Georgia', serif" font-size="11" fill="#0b1f3a">BENGALURU</text>
</svg>
